# xmcd CD database file
#
# Track frame offsets:
#	150
#	28507
#	44280
#	66224
#	97099
#	128155
#	165932
#	191225
#	206128
#	237403
#
# Disc length: 3670 seconds
#
# Revision: 0
# Processed by: cddbd v1.5.2PL0 Copyright (c) Steve Scherf et al.
# Submitted via: CDex 1.51
#
DISCID=8c0e540a
DTITLE=Creme Anglaise - Creme Anglaise
DYEAR=2006
DGENRE=Jazz
TTITLE0=Cold Duck Time
TTITLE1=Lullaby for Channing
TTITLE2=Wise Words
TTITLE3=Melting
TTITLE4=When I Was Young
TTITLE5=Girl Talk
TTITLE6=A Side Eye Glance At The Lobe
TTITLE7=Waly Waly
TTITLE8=I Thought That Life Was So Beautiful
TTITLE9=Angelicus
EXTD=YEAR: 2006
EXTT0=
EXTT1=
EXTT2=
EXTT3=
EXTT4=
EXTT5=
EXTT6=
EXTT7=
EXTT8=
EXTT9=
PLAYORDER=
